<svg width="157" height="160" viewBox="0 0 157 160" fill="none" xmlns="http://www.w3.org/2000/svg">
<path d="M144.1 14.5986C146.568 17.1195 148.43 20.1689 149.545 23.5161C150.66 26.8632 150.999 30.4202 150.536 33.9176C150.073 37.415 148.82 40.7612 146.872 43.7027C144.924 46.6442 142.332 49.1038 139.293 50.8953C117.383 63.7763 91.8169 69.018 66.6063 65.7975C41.3957 62.5771 17.9679 51.0769 0 33.1019L32.4289 0C43.1667 10.735 57.1512 17.6204 72.2071 19.5851C87.263 21.5499 102.546 18.4838 115.679 10.8639C120.15 8.2296 125.372 7.16284 130.517 7.83266C135.663 8.50249 140.438 10.8706 144.085 14.5616L144.1 14.5986Z" fill="#9C5AFF"/>
<path d="M143.959 14.4507C139.613 10.1067 133.72 7.66644 127.575 7.66644C121.43 7.66644 115.536 10.1067 111.19 14.4507L12.8311 112.81C8.48715 117.156 6.04691 123.049 6.04691 129.194C6.04691 135.339 8.48715 141.233 12.8311 145.579C14.9822 147.732 17.5364 149.439 20.3477 150.604C23.1591 151.77 26.1725 152.369 29.2157 152.369C32.2589 152.369 35.2723 151.77 38.0837 150.604C40.895 149.439 43.4492 147.732 45.6002 145.579L143.959 47.2198C146.112 45.0687 147.82 42.5145 148.985 39.7032C150.15 36.8918 150.75 33.8784 150.75 30.8352C150.75 27.792 150.15 24.7786 148.985 21.9673C147.82 19.1559 146.112 16.6017 143.959 14.4507Z" fill="url(#paint0_linear_7_340)"/>
<path d="M12.7127 145.394C10.2443 142.874 8.38172 139.826 7.26608 136.48C6.15045 133.133 5.81102 129.577 6.27352 126.08C6.73601 122.583 7.9883 119.238 9.9355 116.297C11.8827 113.355 14.4737 110.896 17.5123 109.105C39.4233 96.2259 64.9895 90.9849 90.2005 94.2039C115.411 97.4228 138.841 108.92 156.813 126.891L124.369 160C113.631 149.265 99.6465 142.38 84.5906 140.415C69.5347 138.45 54.2516 141.516 41.1185 149.136C36.6428 151.764 31.4183 152.822 26.2728 152.144C21.1274 151.467 16.3552 149.091 12.7127 145.394Z" fill="url(#paint1_linear_7_340)"/>
<defs>
<linearGradient id="paint0_linear_7_340" x1="149.254" y1="21.7204" x2="48.8394" y2="104.32" gradientUnits="userSpaceOnUse">
<stop stop-color="#22BFFF"/>
<stop offset="0.15" stop-color="#22BFFF" stop-opacity="0.84"/>
<stop offset="0.57" stop-color="#22BFFF" stop-opacity="0.39"/>
<stop offset="0.87" stop-color="#22BFFF" stop-opacity="0.11"/>
<stop offset="1" stop-color="#22BFFF" stop-opacity="0"/>
</linearGradient>
<linearGradient id="paint1_linear_7_340" x1="7.93527" y1="127.312" x2="155.851" y2="126.232" gradientUnits="userSpaceOnUse">
<stop stop-color="#FFC99E"/>
<stop offset="0.67" stop-color="#FF87A4"/>
<stop offset="1" stop-color="#FF6BA6"/>
</linearGradient>
</defs>
</svg>
